<mxfile host="app.diagrams.net" agent="Mozilla/5.0 (Windows NT 10.0; Win64; x64) AppleWebKit/537.36 (KHTML, like Gecko) Chrome/135.0.0.0 Safari/537.36" version="27.0.5" pages="3">
  <diagram name="Page-1" id="74e2e168-ea6b-b213-b513-2b3c1d86103e">
    <mxGraphModel dx="1000" dy="665" grid="1" gridSize="10" guides="1" tooltips="1" connect="1" arrows="1" fold="1" page="1" pageScale="1" pageWidth="1100" pageHeight="850" background="none" math="0" shadow="0">
      <root>
        <mxCell id="0" />
        <mxCell id="1" parent="0" />
        <mxCell id="77e6c97f196da883-1" value="Pool" style="swimlane;html=1;childLayout=stackLayout;startSize=20;rounded=0;shadow=0;labelBackgroundColor=none;strokeWidth=1;fontFamily=Verdana;fontSize=8;align=center;" parent="1" vertex="1">
          <mxGeometry x="70" y="40" width="960" height="750" as="geometry" />
        </mxCell>
        <mxCell id="77e6c97f196da883-2" value="Lane 1" style="swimlane;html=1;startSize=20;" parent="77e6c97f196da883-1" vertex="1">
          <mxGeometry y="20" width="160" height="730" as="geometry" />
        </mxCell>
        <mxCell id="77e6c97f196da883-8" value="" style="rounded=1;whiteSpace=wrap;html=1;shadow=0;labelBackgroundColor=none;strokeWidth=1;fontFamily=Verdana;fontSize=8;align=center;" parent="77e6c97f196da883-2" vertex="1">
          <mxGeometry x="20" y="65" width="100" height="60" as="geometry" />
        </mxCell>
        <mxCell id="77e6c97f196da883-9" value="" style="rounded=1;whiteSpace=wrap;html=1;shadow=0;labelBackgroundColor=none;strokeWidth=1;fontFamily=Verdana;fontSize=8;align=center;" parent="77e6c97f196da883-2" vertex="1">
          <mxGeometry x="20" y="155" width="100" height="60" as="geometry" />
        </mxCell>
        <mxCell id="77e6c97f196da883-10" value="" style="rounded=1;whiteSpace=wrap;html=1;shadow=0;labelBackgroundColor=none;strokeWidth=1;fontFamily=Verdana;fontSize=8;align=center;" parent="77e6c97f196da883-2" vertex="1">
          <mxGeometry x="30" y="560" width="100" height="60" as="geometry" />
        </mxCell>
        <mxCell id="77e6c97f196da883-26" style="edgeStyle=orthogonalEdgeStyle;rounded=1;html=1;labelBackgroundColor=none;startArrow=none;startFill=0;startSize=5;endArrow=classicThin;endFill=1;endSize=5;jettySize=auto;orthogonalLoop=1;strokeWidth=1;fontFamily=Verdana;fontSize=8" parent="77e6c97f196da883-1" source="77e6c97f196da883-8" target="77e6c97f196da883-11" edge="1">
          <mxGeometry relative="1" as="geometry" />
        </mxCell>
        <mxCell id="77e6c97f196da883-27" style="edgeStyle=orthogonalEdgeStyle;rounded=1;html=1;labelBackgroundColor=none;startArrow=none;startFill=0;startSize=5;endArrow=classicThin;endFill=1;endSize=5;jettySize=auto;orthogonalLoop=1;strokeWidth=1;fontFamily=Verdana;fontSize=8" parent="77e6c97f196da883-1" source="77e6c97f196da883-11" target="77e6c97f196da883-9" edge="1">
          <mxGeometry relative="1" as="geometry">
            <Array as="points">
              <mxPoint x="240" y="155" />
              <mxPoint x="70" y="155" />
            </Array>
          </mxGeometry>
        </mxCell>
        <mxCell id="77e6c97f196da883-28" style="edgeStyle=orthogonalEdgeStyle;rounded=1;html=1;labelBackgroundColor=none;startArrow=none;startFill=0;startSize=5;endArrow=classicThin;endFill=1;endSize=5;jettySize=auto;orthogonalLoop=1;strokeWidth=1;fontFamily=Verdana;fontSize=8" parent="77e6c97f196da883-1" source="77e6c97f196da883-9" target="77e6c97f196da883-12" edge="1">
          <mxGeometry relative="1" as="geometry" />
        </mxCell>
        <mxCell id="77e6c97f196da883-30" style="edgeStyle=orthogonalEdgeStyle;rounded=1;html=1;labelBackgroundColor=none;startArrow=none;startFill=0;startSize=5;endArrow=classicThin;endFill=1;endSize=5;jettySize=auto;orthogonalLoop=1;strokeWidth=1;fontFamily=Verdana;fontSize=8" parent="77e6c97f196da883-1" source="77e6c97f196da883-13" target="77e6c97f196da883-9" edge="1">
          <mxGeometry relative="1" as="geometry" />
        </mxCell>
        <mxCell id="77e6c97f196da883-31" style="edgeStyle=orthogonalEdgeStyle;rounded=1;html=1;labelBackgroundColor=none;startArrow=none;startFill=0;startSize=5;endArrow=classicThin;endFill=1;endSize=5;jettySize=auto;orthogonalLoop=1;strokeWidth=1;fontFamily=Verdana;fontSize=8" parent="77e6c97f196da883-1" source="77e6c97f196da883-16" target="77e6c97f196da883-9" edge="1">
          <mxGeometry relative="1" as="geometry" />
        </mxCell>
        <mxCell id="77e6c97f196da883-32" style="edgeStyle=orthogonalEdgeStyle;rounded=1;html=1;labelBackgroundColor=none;startArrow=none;startFill=0;startSize=5;endArrow=classicThin;endFill=1;endSize=5;jettySize=auto;orthogonalLoop=1;strokeWidth=1;fontFamily=Verdana;fontSize=8" parent="77e6c97f196da883-1" source="77e6c97f196da883-20" target="77e6c97f196da883-9" edge="1">
          <mxGeometry relative="1" as="geometry">
            <Array as="points">
              <mxPoint x="20" y="690" />
              <mxPoint x="20" y="370" />
              <mxPoint x="70" y="370" />
            </Array>
          </mxGeometry>
        </mxCell>
        <mxCell id="77e6c97f196da883-33" style="edgeStyle=orthogonalEdgeStyle;rounded=1;html=1;labelBackgroundColor=none;startArrow=none;startFill=0;startSize=5;endArrow=classicThin;endFill=1;endSize=5;jettySize=auto;orthogonalLoop=1;strokeWidth=1;fontFamily=Verdana;fontSize=8" parent="77e6c97f196da883-1" source="77e6c97f196da883-13" target="77e6c97f196da883-15" edge="1">
          <mxGeometry relative="1" as="geometry" />
        </mxCell>
        <mxCell id="77e6c97f196da883-39" style="edgeStyle=orthogonalEdgeStyle;rounded=1;html=1;labelBackgroundColor=none;startArrow=none;startFill=0;startSize=5;endArrow=classicThin;endFill=1;endSize=5;jettySize=auto;orthogonalLoop=1;strokeWidth=1;fontFamily=Verdana;fontSize=8" parent="77e6c97f196da883-1" source="77e6c97f196da883-20" target="77e6c97f196da883-23" edge="1">
          <mxGeometry relative="1" as="geometry" />
        </mxCell>
        <mxCell id="77e6c97f196da883-40" style="edgeStyle=orthogonalEdgeStyle;rounded=1;html=1;labelBackgroundColor=none;startArrow=none;startFill=0;startSize=5;endArrow=classicThin;endFill=1;endSize=5;jettySize=auto;orthogonalLoop=1;strokeWidth=1;fontFamily=Verdana;fontSize=8" parent="77e6c97f196da883-1" source="77e6c97f196da883-23" target="77e6c97f196da883-24" edge="1">
          <mxGeometry relative="1" as="geometry" />
        </mxCell>
        <mxCell id="107ba76e4e335f99-1" style="edgeStyle=orthogonalEdgeStyle;rounded=1;html=1;labelBackgroundColor=none;startArrow=none;startFill=0;startSize=5;endArrow=classicThin;endFill=1;endSize=5;jettySize=auto;orthogonalLoop=1;strokeWidth=1;fontFamily=Verdana;fontSize=8" parent="77e6c97f196da883-1" source="77e6c97f196da883-17" target="77e6c97f196da883-18" edge="1">
          <mxGeometry relative="1" as="geometry" />
        </mxCell>
        <mxCell id="107ba76e4e335f99-2" style="edgeStyle=orthogonalEdgeStyle;rounded=1;html=1;labelBackgroundColor=none;startArrow=none;startFill=0;startSize=5;endArrow=classicThin;endFill=1;endSize=5;jettySize=auto;orthogonalLoop=1;strokeWidth=1;fontFamily=Verdana;fontSize=8" parent="77e6c97f196da883-1" source="77e6c97f196da883-22" target="77e6c97f196da883-14" edge="1">
          <mxGeometry relative="1" as="geometry">
            <Array as="points">
              <mxPoint x="660" y="610" />
              <mxPoint x="660" y="550" />
              <mxPoint x="400" y="550" />
            </Array>
          </mxGeometry>
        </mxCell>
        <mxCell id="107ba76e4e335f99-3" style="edgeStyle=orthogonalEdgeStyle;rounded=1;html=1;labelBackgroundColor=none;startArrow=none;startFill=0;startSize=5;endArrow=classicThin;endFill=1;endSize=5;jettySize=auto;orthogonalLoop=1;strokeColor=#000000;strokeWidth=1;fontFamily=Verdana;fontSize=8;fontColor=#000000;" parent="77e6c97f196da883-1" source="77e6c97f196da883-22" target="77e6c97f196da883-19" edge="1">
          <mxGeometry relative="1" as="geometry" />
        </mxCell>
        <mxCell id="107ba76e4e335f99-4" style="edgeStyle=orthogonalEdgeStyle;rounded=1;html=1;labelBackgroundColor=none;startArrow=none;startFill=0;startSize=5;endArrow=classicThin;endFill=1;endSize=5;jettySize=auto;orthogonalLoop=1;strokeWidth=1;fontFamily=Verdana;fontSize=8" parent="77e6c97f196da883-1" source="77e6c97f196da883-22" target="77e6c97f196da883-10" edge="1">
          <mxGeometry relative="1" as="geometry">
            <Array as="points">
              <mxPoint x="660" y="610" />
              <mxPoint x="660" y="550" />
              <mxPoint x="80" y="550" />
            </Array>
          </mxGeometry>
        </mxCell>
        <mxCell id="107ba76e4e335f99-5" style="edgeStyle=orthogonalEdgeStyle;rounded=1;html=1;labelBackgroundColor=none;startArrow=none;startFill=0;startSize=5;endArrow=classicThin;endFill=1;endSize=5;jettySize=auto;orthogonalLoop=1;strokeWidth=1;fontFamily=Verdana;fontSize=8" parent="77e6c97f196da883-1" source="77e6c97f196da883-10" target="77e6c97f196da883-19" edge="1">
          <mxGeometry relative="1" as="geometry">
            <Array as="points">
              <mxPoint x="80" y="650" />
              <mxPoint x="490" y="650" />
              <mxPoint x="490" y="610" />
            </Array>
          </mxGeometry>
        </mxCell>
        <mxCell id="107ba76e4e335f99-6" style="edgeStyle=orthogonalEdgeStyle;rounded=1;html=1;labelBackgroundColor=none;startArrow=none;startFill=0;startSize=5;endArrow=classicThin;endFill=1;endSize=5;jettySize=auto;orthogonalLoop=1;strokeWidth=1;fontFamily=Verdana;fontSize=8" parent="77e6c97f196da883-1" source="77e6c97f196da883-14" target="77e6c97f196da883-19" edge="1">
          <mxGeometry relative="1" as="geometry" />
        </mxCell>
        <mxCell id="77e6c97f196da883-3" value="Lane 2" style="swimlane;html=1;startSize=20;" parent="77e6c97f196da883-1" vertex="1">
          <mxGeometry x="160" y="20" width="160" height="730" as="geometry" />
        </mxCell>
        <mxCell id="77e6c97f196da883-11" value="" style="rounded=1;whiteSpace=wrap;html=1;shadow=0;labelBackgroundColor=none;strokeWidth=1;fontFamily=Verdana;fontSize=8;align=center;" parent="77e6c97f196da883-3" vertex="1">
          <mxGeometry x="30" y="65" width="100" height="60" as="geometry" />
        </mxCell>
        <mxCell id="77e6c97f196da883-4" value="Lane 3" style="swimlane;html=1;startSize=20;" parent="77e6c97f196da883-1" vertex="1">
          <mxGeometry x="320" y="20" width="160" height="730" as="geometry" />
        </mxCell>
        <mxCell id="77e6c97f196da883-12" value="" style="rounded=1;whiteSpace=wrap;html=1;shadow=0;labelBackgroundColor=none;strokeWidth=1;fontFamily=Verdana;fontSize=8;align=center;" parent="77e6c97f196da883-4" vertex="1">
          <mxGeometry x="30" y="155" width="100" height="60" as="geometry" />
        </mxCell>
        <mxCell id="77e6c97f196da883-13" value="" style="rhombus;whiteSpace=wrap;html=1;rounded=0;shadow=0;labelBackgroundColor=none;strokeWidth=1;fontFamily=Verdana;fontSize=8;align=center;" parent="77e6c97f196da883-4" vertex="1">
          <mxGeometry x="40" y="240" width="80" height="60" as="geometry" />
        </mxCell>
        <mxCell id="77e6c97f196da883-14" value="" style="rounded=1;whiteSpace=wrap;html=1;shadow=0;labelBackgroundColor=none;strokeWidth=1;fontFamily=Verdana;fontSize=8;align=center;" parent="77e6c97f196da883-4" vertex="1">
          <mxGeometry x="30" y="560" width="100" height="60" as="geometry" />
        </mxCell>
        <mxCell id="77e6c97f196da883-29" style="edgeStyle=orthogonalEdgeStyle;rounded=1;html=1;labelBackgroundColor=none;startArrow=none;startFill=0;startSize=5;endArrow=classicThin;endFill=1;endSize=5;jettySize=auto;orthogonalLoop=1;strokeWidth=1;fontFamily=Verdana;fontSize=8" parent="77e6c97f196da883-4" source="77e6c97f196da883-12" target="77e6c97f196da883-13" edge="1">
          <mxGeometry relative="1" as="geometry" />
        </mxCell>
        <mxCell id="77e6c97f196da883-5" value="Lane 4" style="swimlane;html=1;startSize=20;" parent="77e6c97f196da883-1" vertex="1">
          <mxGeometry x="480" y="20" width="160" height="730" as="geometry" />
        </mxCell>
        <mxCell id="77e6c97f196da883-15" value="" style="rounded=1;whiteSpace=wrap;html=1;shadow=0;labelBackgroundColor=none;strokeWidth=1;fontFamily=Verdana;fontSize=8;align=center;" parent="77e6c97f196da883-5" vertex="1">
          <mxGeometry x="30" y="240" width="100" height="60" as="geometry" />
        </mxCell>
        <mxCell id="77e6c97f196da883-16" value="" style="rhombus;whiteSpace=wrap;html=1;rounded=0;shadow=0;labelBackgroundColor=none;strokeWidth=1;fontFamily=Verdana;fontSize=8;align=center;" parent="77e6c97f196da883-5" vertex="1">
          <mxGeometry x="40" y="320" width="80" height="60" as="geometry" />
        </mxCell>
        <mxCell id="77e6c97f196da883-17" value="" style="rounded=1;whiteSpace=wrap;html=1;shadow=0;labelBackgroundColor=none;strokeWidth=1;fontFamily=Verdana;fontSize=8;align=center;" parent="77e6c97f196da883-5" vertex="1">
          <mxGeometry x="30" y="400" width="100" height="60" as="geometry" />
        </mxCell>
        <mxCell id="77e6c97f196da883-19" value="" style="rounded=1;whiteSpace=wrap;html=1;shadow=0;labelBackgroundColor=none;strokeWidth=1;fontFamily=Verdana;fontSize=8;align=center;" parent="77e6c97f196da883-5" vertex="1">
          <mxGeometry x="30" y="560" width="100" height="60" as="geometry" />
        </mxCell>
        <mxCell id="77e6c97f196da883-20" value="" style="rhombus;whiteSpace=wrap;html=1;rounded=0;shadow=0;labelBackgroundColor=none;strokeWidth=1;fontFamily=Verdana;fontSize=8;align=center;" parent="77e6c97f196da883-5" vertex="1">
          <mxGeometry x="40" y="640" width="80" height="60" as="geometry" />
        </mxCell>
        <mxCell id="77e6c97f196da883-34" style="edgeStyle=orthogonalEdgeStyle;rounded=1;html=1;labelBackgroundColor=none;startArrow=none;startFill=0;startSize=5;endArrow=classicThin;endFill=1;endSize=5;jettySize=auto;orthogonalLoop=1;strokeColor=#000000;strokeWidth=1;fontFamily=Verdana;fontSize=8;fontColor=#000000;" parent="77e6c97f196da883-5" source="77e6c97f196da883-15" target="77e6c97f196da883-16" edge="1">
          <mxGeometry relative="1" as="geometry" />
        </mxCell>
        <mxCell id="77e6c97f196da883-35" style="edgeStyle=orthogonalEdgeStyle;rounded=1;html=1;labelBackgroundColor=none;startArrow=none;startFill=0;startSize=5;endArrow=classicThin;endFill=1;endSize=5;jettySize=auto;orthogonalLoop=1;strokeWidth=1;fontFamily=Verdana;fontSize=8" parent="77e6c97f196da883-5" source="77e6c97f196da883-16" target="77e6c97f196da883-17" edge="1">
          <mxGeometry relative="1" as="geometry" />
        </mxCell>
        <mxCell id="77e6c97f196da883-36" style="edgeStyle=orthogonalEdgeStyle;rounded=1;html=1;labelBackgroundColor=none;startArrow=none;startFill=0;startSize=5;endArrow=classicThin;endFill=1;endSize=5;jettySize=auto;orthogonalLoop=1;strokeWidth=1;fontFamily=Verdana;fontSize=8" parent="77e6c97f196da883-5" source="77e6c97f196da883-19" target="77e6c97f196da883-20" edge="1">
          <mxGeometry relative="1" as="geometry" />
        </mxCell>
        <mxCell id="77e6c97f196da883-6" value="Lane 5" style="swimlane;html=1;startSize=20;" parent="77e6c97f196da883-1" vertex="1">
          <mxGeometry x="640" y="20" width="160" height="730" as="geometry" />
        </mxCell>
        <mxCell id="77e6c97f196da883-18" value="" style="rounded=1;whiteSpace=wrap;html=1;shadow=0;labelBackgroundColor=none;strokeWidth=1;fontFamily=Verdana;fontSize=8;align=center;" parent="77e6c97f196da883-6" vertex="1">
          <mxGeometry x="30" y="400" width="100" height="60" as="geometry" />
        </mxCell>
        <mxCell id="77e6c97f196da883-21" value="" style="rounded=1;whiteSpace=wrap;html=1;shadow=0;labelBackgroundColor=none;strokeWidth=1;fontFamily=Verdana;fontSize=8;align=center;" parent="77e6c97f196da883-6" vertex="1">
          <mxGeometry x="30" y="480" width="100" height="60" as="geometry" />
        </mxCell>
        <mxCell id="77e6c97f196da883-22" value="" style="rounded=1;whiteSpace=wrap;html=1;shadow=0;labelBackgroundColor=none;strokeWidth=1;fontFamily=Verdana;fontSize=8;align=center;" parent="77e6c97f196da883-6" vertex="1">
          <mxGeometry x="30" y="560" width="100" height="60" as="geometry" />
        </mxCell>
        <mxCell id="77e6c97f196da883-23" value="" style="rounded=1;whiteSpace=wrap;html=1;shadow=0;labelBackgroundColor=none;strokeWidth=1;fontFamily=Verdana;fontSize=8;align=center;" parent="77e6c97f196da883-6" vertex="1">
          <mxGeometry x="30" y="640" width="100" height="60" as="geometry" />
        </mxCell>
        <mxCell id="77e6c97f196da883-37" style="edgeStyle=orthogonalEdgeStyle;rounded=1;html=1;labelBackgroundColor=none;startArrow=none;startFill=0;startSize=5;endArrow=classicThin;endFill=1;endSize=5;jettySize=auto;orthogonalLoop=1;strokeWidth=1;fontFamily=Verdana;fontSize=8" parent="77e6c97f196da883-6" source="77e6c97f196da883-18" target="77e6c97f196da883-21" edge="1">
          <mxGeometry relative="1" as="geometry" />
        </mxCell>
        <mxCell id="77e6c97f196da883-38" style="edgeStyle=orthogonalEdgeStyle;rounded=1;html=1;labelBackgroundColor=none;startArrow=none;startFill=0;startSize=5;endArrow=classicThin;endFill=1;endSize=5;jettySize=auto;orthogonalLoop=1;strokeWidth=1;fontFamily=Verdana;fontSize=8" parent="77e6c97f196da883-6" source="77e6c97f196da883-21" target="77e6c97f196da883-22" edge="1">
          <mxGeometry relative="1" as="geometry" />
        </mxCell>
        <mxCell id="77e6c97f196da883-7" value="Lane 6" style="swimlane;html=1;startSize=20;" parent="77e6c97f196da883-1" vertex="1">
          <mxGeometry x="800" y="20" width="160" height="730" as="geometry" />
        </mxCell>
        <mxCell id="77e6c97f196da883-24" value="" style="rounded=1;whiteSpace=wrap;html=1;shadow=0;labelBackgroundColor=none;strokeWidth=1;fontFamily=Verdana;fontSize=8;align=center;" parent="77e6c97f196da883-7" vertex="1">
          <mxGeometry x="30" y="640" width="100" height="60" as="geometry" />
        </mxCell>
      </root>
    </mxGraphModel>
  </diagram>
  <diagram id="tbEQkEvZcvzgydZsNxLi" name="第 2 页">
    <mxGraphModel dx="1000" dy="665" grid="1" gridSize="10" guides="1" tooltips="1" connect="1" arrows="1" fold="1" page="1" pageScale="1" pageWidth="827" pageHeight="1169" math="0" shadow="0">
      <root>
        <mxCell id="0" />
        <mxCell id="1" parent="0" />
        <mxCell id="7yazirc0rd1oQu40r2tu-1" value="xdma_driver_win" style="swimlane;html=1;childLayout=stackLayout;startSize=20;rounded=0;shadow=0;labelBackgroundColor=none;strokeWidth=1;fontFamily=Verdana;fontSize=8;align=center;" vertex="1" parent="1">
          <mxGeometry x="50" y="40" width="590" height="610" as="geometry" />
        </mxCell>
        <mxCell id="7yazirc0rd1oQu40r2tu-2" value="TimeOutHandleThread" style="swimlane;html=1;startSize=20;" vertex="1" parent="7yazirc0rd1oQu40r2tu-1">
          <mxGeometry y="20" width="220" height="590" as="geometry" />
        </mxCell>
        <mxCell id="7yazirc0rd1oQu40r2tu-47" style="edgeStyle=orthogonalEdgeStyle;rounded=0;orthogonalLoop=1;jettySize=auto;html=1;entryX=0.5;entryY=0;entryDx=0;entryDy=0;" edge="1" parent="7yazirc0rd1oQu40r2tu-2" source="7yazirc0rd1oQu40r2tu-3" target="7yazirc0rd1oQu40r2tu-46">
          <mxGeometry relative="1" as="geometry" />
        </mxCell>
        <mxCell id="7yazirc0rd1oQu40r2tu-3" value="wait semaphore" style="rounded=1;whiteSpace=wrap;html=1;shadow=0;labelBackgroundColor=none;strokeWidth=1;fontFamily=Verdana;fontSize=8;align=center;" vertex="1" parent="7yazirc0rd1oQu40r2tu-2">
          <mxGeometry x="73.49" y="180" width="100" height="25" as="geometry" />
        </mxCell>
        <mxCell id="7yazirc0rd1oQu40r2tu-48" style="edgeStyle=orthogonalEdgeStyle;rounded=0;orthogonalLoop=1;jettySize=auto;html=1;entryX=0.5;entryY=0;entryDx=0;entryDy=0;" edge="1" parent="7yazirc0rd1oQu40r2tu-2" source="7yazirc0rd1oQu40r2tu-46" target="7yazirc0rd1oQu40r2tu-3">
          <mxGeometry relative="1" as="geometry">
            <Array as="points">
              <mxPoint x="193" y="270" />
              <mxPoint x="193" y="160" />
              <mxPoint x="124" y="160" />
            </Array>
          </mxGeometry>
        </mxCell>
        <mxCell id="7yazirc0rd1oQu40r2tu-49" value="False" style="edgeLabel;html=1;align=center;verticalAlign=middle;resizable=0;points=[];" vertex="1" connectable="0" parent="7yazirc0rd1oQu40r2tu-48">
          <mxGeometry x="-0.4202" relative="1" as="geometry">
            <mxPoint as="offset" />
          </mxGeometry>
        </mxCell>
        <mxCell id="7yazirc0rd1oQu40r2tu-51" style="edgeStyle=orthogonalEdgeStyle;rounded=0;orthogonalLoop=1;jettySize=auto;html=1;entryX=0.5;entryY=0;entryDx=0;entryDy=0;" edge="1" parent="7yazirc0rd1oQu40r2tu-2" source="7yazirc0rd1oQu40r2tu-46" target="7yazirc0rd1oQu40r2tu-50">
          <mxGeometry relative="1" as="geometry" />
        </mxCell>
        <mxCell id="7yazirc0rd1oQu40r2tu-64" value="True" style="edgeLabel;html=1;align=center;verticalAlign=middle;resizable=0;points=[];" vertex="1" connectable="0" parent="7yazirc0rd1oQu40r2tu-51">
          <mxGeometry x="-0.0397" y="-2" relative="1" as="geometry">
            <mxPoint y="-4" as="offset" />
          </mxGeometry>
        </mxCell>
        <mxCell id="7yazirc0rd1oQu40r2tu-65" value="" style="edgeStyle=orthogonalEdgeStyle;rounded=0;orthogonalLoop=1;jettySize=auto;html=1;" edge="1" parent="7yazirc0rd1oQu40r2tu-2" source="7yazirc0rd1oQu40r2tu-46" target="7yazirc0rd1oQu40r2tu-50">
          <mxGeometry relative="1" as="geometry" />
        </mxCell>
        <mxCell id="7yazirc0rd1oQu40r2tu-46" value="isReqPending" style="rhombus;whiteSpace=wrap;html=1;rounded=0;shadow=0;labelBackgroundColor=none;strokeWidth=1;fontFamily=Verdana;fontSize=8;align=center;" vertex="1" parent="7yazirc0rd1oQu40r2tu-2">
          <mxGeometry x="83.49000000000001" y="240" width="80" height="60" as="geometry" />
        </mxCell>
        <mxCell id="7yazirc0rd1oQu40r2tu-55" style="edgeStyle=orthogonalEdgeStyle;rounded=0;orthogonalLoop=1;jettySize=auto;html=1;exitX=0;exitY=0.5;exitDx=0;exitDy=0;" edge="1" parent="7yazirc0rd1oQu40r2tu-2" source="7yazirc0rd1oQu40r2tu-50" target="7yazirc0rd1oQu40r2tu-3">
          <mxGeometry relative="1" as="geometry">
            <mxPoint x="71" y="170" as="targetPoint" />
            <Array as="points">
              <mxPoint x="50" y="355" />
              <mxPoint x="50" y="190" />
            </Array>
          </mxGeometry>
        </mxCell>
        <mxCell id="7yazirc0rd1oQu40r2tu-63" value="Success" style="edgeLabel;html=1;align=center;verticalAlign=middle;resizable=0;points=[];" vertex="1" connectable="0" parent="7yazirc0rd1oQu40r2tu-55">
          <mxGeometry x="-0.0756" y="-1" relative="1" as="geometry">
            <mxPoint as="offset" />
          </mxGeometry>
        </mxCell>
        <mxCell id="7yazirc0rd1oQu40r2tu-57" style="edgeStyle=orthogonalEdgeStyle;rounded=0;orthogonalLoop=1;jettySize=auto;html=1;entryX=0.5;entryY=0;entryDx=0;entryDy=0;" edge="1" parent="7yazirc0rd1oQu40r2tu-2" source="7yazirc0rd1oQu40r2tu-50" target="7yazirc0rd1oQu40r2tu-56">
          <mxGeometry relative="1" as="geometry" />
        </mxCell>
        <mxCell id="7yazirc0rd1oQu40r2tu-58" value="TimeOut" style="edgeLabel;html=1;align=center;verticalAlign=middle;resizable=0;points=[];" vertex="1" connectable="0" parent="7yazirc0rd1oQu40r2tu-57">
          <mxGeometry x="-0.4405" y="2" relative="1" as="geometry">
            <mxPoint x="-2" y="9" as="offset" />
          </mxGeometry>
        </mxCell>
        <mxCell id="7yazirc0rd1oQu40r2tu-50" value="wait completionWaitSignal" style="rounded=1;whiteSpace=wrap;html=1;shadow=0;labelBackgroundColor=none;strokeWidth=1;fontFamily=Verdana;fontSize=8;align=center;" vertex="1" parent="7yazirc0rd1oQu40r2tu-2">
          <mxGeometry x="58.49" y="340" width="130" height="30" as="geometry" />
        </mxCell>
        <mxCell id="7yazirc0rd1oQu40r2tu-56" value="TimeOutHandler" style="rounded=1;whiteSpace=wrap;html=1;shadow=0;labelBackgroundColor=none;strokeWidth=1;fontFamily=Verdana;fontSize=8;align=center;" vertex="1" parent="7yazirc0rd1oQu40r2tu-2">
          <mxGeometry x="73.49" y="432" width="100" height="20" as="geometry" />
        </mxCell>
        <mxCell id="7yazirc0rd1oQu40r2tu-62" style="edgeStyle=orthogonalEdgeStyle;rounded=0;orthogonalLoop=1;jettySize=auto;html=1;entryX=0.005;entryY=0.417;entryDx=0;entryDy=0;entryPerimeter=0;" edge="1" parent="7yazirc0rd1oQu40r2tu-2" source="7yazirc0rd1oQu40r2tu-56" target="7yazirc0rd1oQu40r2tu-3">
          <mxGeometry relative="1" as="geometry">
            <Array as="points">
              <mxPoint x="124" y="490" />
              <mxPoint x="20" y="490" />
              <mxPoint x="20" y="190" />
              <mxPoint x="74" y="190" />
            </Array>
          </mxGeometry>
        </mxCell>
        <mxCell id="7yazirc0rd1oQu40r2tu-100" value="Infinite Loop For TimeOut Check" style="text;html=1;align=center;verticalAlign=middle;whiteSpace=wrap;rounded=0;" vertex="1" parent="7yazirc0rd1oQu40r2tu-2">
          <mxGeometry x="10" y="90" width="96.51" height="30" as="geometry" />
        </mxCell>
        <mxCell id="7yazirc0rd1oQu40r2tu-124" value="10" style="ellipse;whiteSpace=wrap;html=1;aspect=fixed;fillColor=#e51400;fontColor=#ffffff;strokeColor=#B20000;" vertex="1" parent="7yazirc0rd1oQu40r2tu-2">
          <mxGeometry x="63.49000000000001" y="160" width="20" height="20" as="geometry" />
        </mxCell>
        <mxCell id="7yazirc0rd1oQu40r2tu-125" value="11" style="ellipse;whiteSpace=wrap;html=1;aspect=fixed;fillColor=#e51400;fontColor=#ffffff;strokeColor=#B20000;" vertex="1" parent="7yazirc0rd1oQu40r2tu-2">
          <mxGeometry x="180" y="270" width="20" height="20" as="geometry" />
        </mxCell>
        <mxCell id="7yazirc0rd1oQu40r2tu-21" value="InterruptHandler" style="swimlane;html=1;startSize=20;" vertex="1" parent="7yazirc0rd1oQu40r2tu-1">
          <mxGeometry x="220" y="20" width="190" height="590" as="geometry" />
        </mxCell>
        <mxCell id="7yazirc0rd1oQu40r2tu-76" style="edgeStyle=orthogonalEdgeStyle;rounded=0;orthogonalLoop=1;jettySize=auto;html=1;" edge="1" parent="7yazirc0rd1oQu40r2tu-21" source="7yazirc0rd1oQu40r2tu-22" target="7yazirc0rd1oQu40r2tu-67">
          <mxGeometry relative="1" as="geometry" />
        </mxCell>
        <mxCell id="7yazirc0rd1oQu40r2tu-22" value="SetEvent" style="rounded=1;whiteSpace=wrap;html=1;shadow=0;labelBackgroundColor=none;strokeWidth=1;fontFamily=Verdana;fontSize=8;align=center;" vertex="1" parent="7yazirc0rd1oQu40r2tu-21">
          <mxGeometry x="42.5" y="418" width="80" height="20" as="geometry" />
        </mxCell>
        <mxCell id="7yazirc0rd1oQu40r2tu-73" style="edgeStyle=orthogonalEdgeStyle;rounded=0;orthogonalLoop=1;jettySize=auto;html=1;" edge="1" parent="7yazirc0rd1oQu40r2tu-21" source="7yazirc0rd1oQu40r2tu-66" target="7yazirc0rd1oQu40r2tu-71">
          <mxGeometry relative="1" as="geometry" />
        </mxCell>
        <mxCell id="7yazirc0rd1oQu40r2tu-80" value="True" style="edgeLabel;html=1;align=center;verticalAlign=middle;resizable=0;points=[];" vertex="1" connectable="0" parent="7yazirc0rd1oQu40r2tu-73">
          <mxGeometry x="-0.1278" y="1" relative="1" as="geometry">
            <mxPoint as="offset" />
          </mxGeometry>
        </mxCell>
        <mxCell id="7yazirc0rd1oQu40r2tu-66" value="isReqPending" style="rhombus;whiteSpace=wrap;html=1;rounded=0;shadow=0;labelBackgroundColor=none;strokeWidth=1;fontFamily=Verdana;fontSize=8;align=center;" vertex="1" parent="7yazirc0rd1oQu40r2tu-21">
          <mxGeometry x="42.5" y="138" width="80" height="40" as="geometry" />
        </mxCell>
        <mxCell id="7yazirc0rd1oQu40r2tu-67" value="End" style="strokeWidth=2;html=1;shape=mxgraph.flowchart.terminator;whiteSpace=wrap;" vertex="1" parent="7yazirc0rd1oQu40r2tu-21">
          <mxGeometry x="55" y="528" width="55" height="30" as="geometry" />
        </mxCell>
        <mxCell id="7yazirc0rd1oQu40r2tu-68" style="edgeStyle=orthogonalEdgeStyle;rounded=0;orthogonalLoop=1;jettySize=auto;html=1;entryX=0.5;entryY=0;entryDx=0;entryDy=0;entryPerimeter=0;" edge="1" parent="7yazirc0rd1oQu40r2tu-21" source="7yazirc0rd1oQu40r2tu-66" target="7yazirc0rd1oQu40r2tu-67">
          <mxGeometry relative="1" as="geometry">
            <Array as="points">
              <mxPoint x="158" y="148" />
              <mxPoint x="158" y="488" />
              <mxPoint x="82" y="488" />
            </Array>
          </mxGeometry>
        </mxCell>
        <mxCell id="7yazirc0rd1oQu40r2tu-69" value="False" style="edgeLabel;html=1;align=center;verticalAlign=middle;resizable=0;points=[];" vertex="1" connectable="0" parent="7yazirc0rd1oQu40r2tu-68">
          <mxGeometry x="-0.5945" y="-3" relative="1" as="geometry">
            <mxPoint x="3" y="-26" as="offset" />
          </mxGeometry>
        </mxCell>
        <mxCell id="7yazirc0rd1oQu40r2tu-74" style="edgeStyle=orthogonalEdgeStyle;rounded=0;orthogonalLoop=1;jettySize=auto;html=1;" edge="1" parent="7yazirc0rd1oQu40r2tu-21" source="7yazirc0rd1oQu40r2tu-71" target="7yazirc0rd1oQu40r2tu-81">
          <mxGeometry relative="1" as="geometry" />
        </mxCell>
        <mxCell id="7yazirc0rd1oQu40r2tu-71" value="read status register" style="rounded=1;whiteSpace=wrap;html=1;shadow=0;labelBackgroundColor=none;strokeWidth=1;fontFamily=Verdana;fontSize=8;align=center;" vertex="1" parent="7yazirc0rd1oQu40r2tu-21">
          <mxGeometry x="32.5" y="218" width="100" height="25" as="geometry" />
        </mxCell>
        <mxCell id="7yazirc0rd1oQu40r2tu-75" style="edgeStyle=orthogonalEdgeStyle;rounded=0;orthogonalLoop=1;jettySize=auto;html=1;" edge="1" parent="7yazirc0rd1oQu40r2tu-21" source="7yazirc0rd1oQu40r2tu-72" target="7yazirc0rd1oQu40r2tu-22">
          <mxGeometry relative="1" as="geometry" />
        </mxCell>
        <mxCell id="7yazirc0rd1oQu40r2tu-72" value="complete transaction whether success or error" style="rounded=1;whiteSpace=wrap;html=1;shadow=0;labelBackgroundColor=none;strokeWidth=1;fontFamily=Verdana;fontSize=8;align=center;" vertex="1" parent="7yazirc0rd1oQu40r2tu-21">
          <mxGeometry x="32.5" y="338" width="100" height="40" as="geometry" />
        </mxCell>
        <mxCell id="7yazirc0rd1oQu40r2tu-128" style="edgeStyle=orthogonalEdgeStyle;rounded=0;orthogonalLoop=1;jettySize=auto;html=1;entryX=0.5;entryY=0;entryDx=0;entryDy=0;" edge="1" parent="7yazirc0rd1oQu40r2tu-21" source="7yazirc0rd1oQu40r2tu-77" target="7yazirc0rd1oQu40r2tu-127">
          <mxGeometry relative="1" as="geometry" />
        </mxCell>
        <mxCell id="7yazirc0rd1oQu40r2tu-77" value="Start" style="strokeWidth=2;html=1;shape=mxgraph.flowchart.terminator;whiteSpace=wrap;" vertex="1" parent="7yazirc0rd1oQu40r2tu-21">
          <mxGeometry x="55" y="39" width="55" height="30" as="geometry" />
        </mxCell>
        <mxCell id="7yazirc0rd1oQu40r2tu-82" style="edgeStyle=orthogonalEdgeStyle;rounded=0;orthogonalLoop=1;jettySize=auto;html=1;" edge="1" parent="7yazirc0rd1oQu40r2tu-21" source="7yazirc0rd1oQu40r2tu-81" target="7yazirc0rd1oQu40r2tu-72">
          <mxGeometry relative="1" as="geometry" />
        </mxCell>
        <mxCell id="7yazirc0rd1oQu40r2tu-81" value="ReqPending = False" style="rounded=1;whiteSpace=wrap;html=1;shadow=0;labelBackgroundColor=none;strokeWidth=1;fontFamily=Verdana;fontSize=8;align=center;" vertex="1" parent="7yazirc0rd1oQu40r2tu-21">
          <mxGeometry x="32.5" y="278" width="100" height="25" as="geometry" />
        </mxCell>
        <mxCell id="7yazirc0rd1oQu40r2tu-121" value="7" style="ellipse;whiteSpace=wrap;html=1;aspect=fixed;fillColor=#e51400;fontColor=#ffffff;strokeColor=#B20000;" vertex="1" parent="7yazirc0rd1oQu40r2tu-21">
          <mxGeometry x="12.5" y="283" width="20" height="20" as="geometry" />
        </mxCell>
        <mxCell id="7yazirc0rd1oQu40r2tu-117" value="6" style="ellipse;whiteSpace=wrap;html=1;aspect=fixed;fillColor=#e51400;fontColor=#ffffff;strokeColor=#B20000;" vertex="1" parent="7yazirc0rd1oQu40r2tu-21">
          <mxGeometry x="12.5" y="208" width="20" height="20" as="geometry" />
        </mxCell>
        <mxCell id="7yazirc0rd1oQu40r2tu-122" value="8" style="ellipse;whiteSpace=wrap;html=1;aspect=fixed;fillColor=#e51400;fontColor=#ffffff;strokeColor=#B20000;" vertex="1" parent="7yazirc0rd1oQu40r2tu-21">
          <mxGeometry x="12.5" y="338" width="20" height="20" as="geometry" />
        </mxCell>
        <mxCell id="7yazirc0rd1oQu40r2tu-123" value="9" style="ellipse;whiteSpace=wrap;html=1;aspect=fixed;fillColor=#e51400;fontColor=#ffffff;strokeColor=#B20000;" vertex="1" parent="7yazirc0rd1oQu40r2tu-21">
          <mxGeometry x="22.5" y="428" width="20" height="20" as="geometry" />
        </mxCell>
        <mxCell id="7yazirc0rd1oQu40r2tu-116" value="2" style="ellipse;whiteSpace=wrap;html=1;aspect=fixed;fillColor=#e51400;fontColor=#ffffff;strokeColor=#B20000;" vertex="1" parent="7yazirc0rd1oQu40r2tu-21">
          <mxGeometry x="12.5" y="70" width="20" height="20" as="geometry" />
        </mxCell>
        <mxCell id="7yazirc0rd1oQu40r2tu-129" style="edgeStyle=orthogonalEdgeStyle;rounded=0;orthogonalLoop=1;jettySize=auto;html=1;entryX=0.5;entryY=0;entryDx=0;entryDy=0;" edge="1" parent="7yazirc0rd1oQu40r2tu-21" source="7yazirc0rd1oQu40r2tu-127" target="7yazirc0rd1oQu40r2tu-66">
          <mxGeometry relative="1" as="geometry" />
        </mxCell>
        <mxCell id="7yazirc0rd1oQu40r2tu-127" value="... ..." style="rounded=1;whiteSpace=wrap;html=1;shadow=0;labelBackgroundColor=none;strokeWidth=1;fontFamily=Verdana;fontSize=8;align=center;" vertex="1" parent="7yazirc0rd1oQu40r2tu-21">
          <mxGeometry x="32.5" y="90" width="100" height="25" as="geometry" />
        </mxCell>
        <mxCell id="7yazirc0rd1oQu40r2tu-23" value="EvtIoRead" style="swimlane;html=1;startSize=20;" vertex="1" parent="7yazirc0rd1oQu40r2tu-1">
          <mxGeometry x="410" y="20" width="180" height="590" as="geometry" />
        </mxCell>
        <mxCell id="7yazirc0rd1oQu40r2tu-102" value="" style="rounded=0;whiteSpace=wrap;html=1;fillColor=#fff2cc;strokeColor=#d6b656;" vertex="1" parent="7yazirc0rd1oQu40r2tu-23">
          <mxGeometry x="25" y="142.5" width="130" height="237.5" as="geometry" />
        </mxCell>
        <mxCell id="7yazirc0rd1oQu40r2tu-89" style="edgeStyle=orthogonalEdgeStyle;rounded=0;orthogonalLoop=1;jettySize=auto;html=1;" edge="1" parent="7yazirc0rd1oQu40r2tu-23" source="7yazirc0rd1oQu40r2tu-83" target="7yazirc0rd1oQu40r2tu-90">
          <mxGeometry relative="1" as="geometry">
            <mxPoint x="90" y="210" as="targetPoint" />
          </mxGeometry>
        </mxCell>
        <mxCell id="7yazirc0rd1oQu40r2tu-83" value="SetDescriptors" style="rounded=1;whiteSpace=wrap;html=1;shadow=0;labelBackgroundColor=none;strokeWidth=1;fontFamily=Verdana;fontSize=8;align=center;" vertex="1" parent="7yazirc0rd1oQu40r2tu-23">
          <mxGeometry x="40" y="160" width="100" height="25" as="geometry" />
        </mxCell>
        <mxCell id="7yazirc0rd1oQu40r2tu-87" style="edgeStyle=orthogonalEdgeStyle;rounded=0;orthogonalLoop=1;jettySize=auto;html=1;entryX=0.5;entryY=0;entryDx=0;entryDy=0;" edge="1" parent="7yazirc0rd1oQu40r2tu-23" source="7yazirc0rd1oQu40r2tu-84" target="7yazirc0rd1oQu40r2tu-83">
          <mxGeometry relative="1" as="geometry" />
        </mxCell>
        <mxCell id="7yazirc0rd1oQu40r2tu-84" value="... ..." style="rounded=1;whiteSpace=wrap;html=1;shadow=0;labelBackgroundColor=none;strokeWidth=1;fontFamily=Verdana;fontSize=8;align=center;" vertex="1" parent="7yazirc0rd1oQu40r2tu-23">
          <mxGeometry x="40" y="100" width="100" height="25" as="geometry" />
        </mxCell>
        <mxCell id="7yazirc0rd1oQu40r2tu-86" style="edgeStyle=orthogonalEdgeStyle;rounded=0;orthogonalLoop=1;jettySize=auto;html=1;entryX=0.5;entryY=0;entryDx=0;entryDy=0;" edge="1" parent="7yazirc0rd1oQu40r2tu-23" source="7yazirc0rd1oQu40r2tu-85" target="7yazirc0rd1oQu40r2tu-84">
          <mxGeometry relative="1" as="geometry" />
        </mxCell>
        <mxCell id="7yazirc0rd1oQu40r2tu-85" value="ReadFile" style="strokeWidth=2;html=1;shape=mxgraph.flowchart.terminator;whiteSpace=wrap;" vertex="1" parent="7yazirc0rd1oQu40r2tu-23">
          <mxGeometry x="55" y="40" width="70" height="30" as="geometry" />
        </mxCell>
        <mxCell id="7yazirc0rd1oQu40r2tu-88" value="... ...&amp;nbsp;&lt;div&gt;wait until&amp;nbsp;&amp;nbsp;WdfRequestComplete is called&lt;/div&gt;" style="rounded=1;whiteSpace=wrap;html=1;shadow=0;labelBackgroundColor=none;strokeWidth=1;fontFamily=Verdana;fontSize=8;align=center;" vertex="1" parent="7yazirc0rd1oQu40r2tu-23">
          <mxGeometry x="15" y="410" width="150" height="40" as="geometry" />
        </mxCell>
        <mxCell id="7yazirc0rd1oQu40r2tu-92" style="edgeStyle=orthogonalEdgeStyle;rounded=0;orthogonalLoop=1;jettySize=auto;html=1;" edge="1" parent="7yazirc0rd1oQu40r2tu-23" source="7yazirc0rd1oQu40r2tu-90" target="7yazirc0rd1oQu40r2tu-91">
          <mxGeometry relative="1" as="geometry" />
        </mxCell>
        <mxCell id="7yazirc0rd1oQu40r2tu-90" value="ReqPending = true" style="rounded=1;whiteSpace=wrap;html=1;shadow=0;labelBackgroundColor=none;strokeWidth=1;fontFamily=Verdana;fontSize=8;align=center;" vertex="1" parent="7yazirc0rd1oQu40r2tu-23">
          <mxGeometry x="40" y="220" width="100" height="25" as="geometry" />
        </mxCell>
        <mxCell id="7yazirc0rd1oQu40r2tu-94" style="edgeStyle=orthogonalEdgeStyle;rounded=0;orthogonalLoop=1;jettySize=auto;html=1;" edge="1" parent="7yazirc0rd1oQu40r2tu-23" source="7yazirc0rd1oQu40r2tu-91" target="7yazirc0rd1oQu40r2tu-93">
          <mxGeometry relative="1" as="geometry" />
        </mxCell>
        <mxCell id="7yazirc0rd1oQu40r2tu-91" value="StartEngine By Set Control Register" style="rounded=1;whiteSpace=wrap;html=1;shadow=0;labelBackgroundColor=none;strokeWidth=1;fontFamily=Verdana;fontSize=8;align=center;" vertex="1" parent="7yazirc0rd1oQu40r2tu-23">
          <mxGeometry x="40" y="280" width="100" height="30" as="geometry" />
        </mxCell>
        <mxCell id="7yazirc0rd1oQu40r2tu-97" style="edgeStyle=orthogonalEdgeStyle;rounded=0;orthogonalLoop=1;jettySize=auto;html=1;" edge="1" parent="7yazirc0rd1oQu40r2tu-23" source="7yazirc0rd1oQu40r2tu-93" target="7yazirc0rd1oQu40r2tu-88">
          <mxGeometry relative="1" as="geometry" />
        </mxCell>
        <mxCell id="7yazirc0rd1oQu40r2tu-93" value="ReleaseSemaphore" style="rounded=1;whiteSpace=wrap;html=1;shadow=0;labelBackgroundColor=none;strokeWidth=1;fontFamily=Verdana;fontSize=8;align=center;" vertex="1" parent="7yazirc0rd1oQu40r2tu-23">
          <mxGeometry x="40" y="340" width="100" height="25" as="geometry" />
        </mxCell>
        <mxCell id="7yazirc0rd1oQu40r2tu-98" value="End" style="strokeWidth=2;html=1;shape=mxgraph.flowchart.terminator;whiteSpace=wrap;" vertex="1" parent="7yazirc0rd1oQu40r2tu-23">
          <mxGeometry x="62.5" y="525" width="55" height="30" as="geometry" />
        </mxCell>
        <mxCell id="7yazirc0rd1oQu40r2tu-99" style="edgeStyle=orthogonalEdgeStyle;rounded=0;orthogonalLoop=1;jettySize=auto;html=1;entryX=0.5;entryY=0;entryDx=0;entryDy=0;entryPerimeter=0;" edge="1" parent="7yazirc0rd1oQu40r2tu-23" source="7yazirc0rd1oQu40r2tu-88" target="7yazirc0rd1oQu40r2tu-98">
          <mxGeometry relative="1" as="geometry" />
        </mxCell>
        <mxCell id="7yazirc0rd1oQu40r2tu-104" value="Driver Code" style="text;html=1;align=center;verticalAlign=middle;whiteSpace=wrap;rounded=0;" vertex="1" parent="7yazirc0rd1oQu40r2tu-23">
          <mxGeometry x="105" y="130" width="75" height="30" as="geometry" />
        </mxCell>
        <mxCell id="7yazirc0rd1oQu40r2tu-119" value="3" style="ellipse;whiteSpace=wrap;html=1;aspect=fixed;fillColor=#e51400;fontColor=#ffffff;strokeColor=#B20000;" vertex="1" parent="7yazirc0rd1oQu40r2tu-23">
          <mxGeometry x="20" y="222.5" width="20" height="20" as="geometry" />
        </mxCell>
        <mxCell id="7yazirc0rd1oQu40r2tu-120" value="4" style="ellipse;whiteSpace=wrap;html=1;aspect=fixed;fillColor=#e51400;fontColor=#ffffff;strokeColor=#B20000;" vertex="1" parent="7yazirc0rd1oQu40r2tu-23">
          <mxGeometry x="20" y="285" width="20" height="20" as="geometry" />
        </mxCell>
        <mxCell id="7yazirc0rd1oQu40r2tu-115" value="1" style="ellipse;whiteSpace=wrap;html=1;aspect=fixed;fillColor=#e51400;fontColor=#ffffff;strokeColor=#B20000;" vertex="1" parent="7yazirc0rd1oQu40r2tu-23">
          <mxGeometry x="20" y="162.5" width="20" height="20" as="geometry" />
        </mxCell>
        <mxCell id="7yazirc0rd1oQu40r2tu-130" value="5" style="ellipse;whiteSpace=wrap;html=1;aspect=fixed;fillColor=#e51400;fontColor=#ffffff;strokeColor=#B20000;" vertex="1" parent="7yazirc0rd1oQu40r2tu-23">
          <mxGeometry x="15" y="360" width="20" height="20" as="geometry" />
        </mxCell>
        <mxCell id="7yazirc0rd1oQu40r2tu-53" style="edgeStyle=orthogonalEdgeStyle;rounded=1;html=1;labelBackgroundColor=none;startArrow=none;startFill=0;startSize=5;endArrow=classicThin;endFill=1;endSize=5;jettySize=auto;orthogonalLoop=1;strokeWidth=1;fontFamily=Verdana;fontSize=8;exitX=0;exitY=0.5;exitDx=0;exitDy=0;entryX=1;entryY=0.5;entryDx=0;entryDy=0;" edge="1" parent="7yazirc0rd1oQu40r2tu-1" source="7yazirc0rd1oQu40r2tu-22" target="7yazirc0rd1oQu40r2tu-50">
          <mxGeometry relative="1" as="geometry">
            <Array as="points">
              <mxPoint x="240" y="420" />
              <mxPoint x="240" y="375" />
            </Array>
            <mxPoint x="160" y="470" as="sourcePoint" />
            <mxPoint x="-70" y="440" as="targetPoint" />
          </mxGeometry>
        </mxCell>
        <mxCell id="7yazirc0rd1oQu40r2tu-54" value="Signal" style="edgeLabel;html=1;align=center;verticalAlign=middle;resizable=0;points=[];" vertex="1" connectable="0" parent="7yazirc0rd1oQu40r2tu-53">
          <mxGeometry x="-0.0293" relative="1" as="geometry">
            <mxPoint y="15" as="offset" />
          </mxGeometry>
        </mxCell>
        <mxCell id="7yazirc0rd1oQu40r2tu-95" style="edgeStyle=orthogonalEdgeStyle;rounded=1;html=1;labelBackgroundColor=none;startArrow=none;startFill=0;startSize=5;endArrow=classicThin;endFill=1;endSize=5;jettySize=auto;orthogonalLoop=1;strokeWidth=1;fontFamily=Verdana;fontSize=8;exitX=0;exitY=0.5;exitDx=0;exitDy=0;" edge="1" parent="7yazirc0rd1oQu40r2tu-1" source="7yazirc0rd1oQu40r2tu-93" target="7yazirc0rd1oQu40r2tu-3">
          <mxGeometry relative="1" as="geometry">
            <Array as="points">
              <mxPoint x="420" y="373" />
              <mxPoint x="420" y="50" />
              <mxPoint x="124" y="50" />
            </Array>
            <mxPoint x="173.49" y="165" as="sourcePoint" />
            <mxPoint x="98.49000000000001" y="120" as="targetPoint" />
          </mxGeometry>
        </mxCell>
        <mxCell id="7yazirc0rd1oQu40r2tu-96" value="Signal" style="edgeLabel;html=1;align=center;verticalAlign=middle;resizable=0;points=[];" vertex="1" connectable="0" parent="7yazirc0rd1oQu40r2tu-95">
          <mxGeometry x="-0.0293" relative="1" as="geometry">
            <mxPoint x="35" y="310" as="offset" />
          </mxGeometry>
        </mxCell>
      </root>
    </mxGraphModel>
  </diagram>
  <diagram id="1ognwyTSaj1cnPpUkqKU" name="第 3 页">
    <mxGraphModel dx="1000" dy="665" grid="1" gridSize="10" guides="1" tooltips="1" connect="1" arrows="1" fold="1" page="1" pageScale="1" pageWidth="827" pageHeight="1169" math="0" shadow="0">
      <root>
        <mxCell id="0" />
        <mxCell id="1" parent="0" />
        <mxCell id="0ez0moKY9Dr9emzr6-ag-1" value="xdma_driver_win" style="swimlane;html=1;childLayout=stackLayout;startSize=20;rounded=0;shadow=0;labelBackgroundColor=none;strokeWidth=1;fontFamily=Verdana;fontSize=8;align=center;" parent="1" vertex="1">
          <mxGeometry x="50" y="40" width="590" height="610" as="geometry" />
        </mxCell>
        <mxCell id="0ez0moKY9Dr9emzr6-ag-2" value="TimeOutHandleThread" style="swimlane;html=1;startSize=20;" parent="0ez0moKY9Dr9emzr6-ag-1" vertex="1">
          <mxGeometry y="20" width="220" height="590" as="geometry" />
        </mxCell>
        <mxCell id="0ez0moKY9Dr9emzr6-ag-3" style="edgeStyle=orthogonalEdgeStyle;rounded=0;orthogonalLoop=1;jettySize=auto;html=1;entryX=0.5;entryY=0;entryDx=0;entryDy=0;" parent="0ez0moKY9Dr9emzr6-ag-2" source="0ez0moKY9Dr9emzr6-ag-4" target="0ez0moKY9Dr9emzr6-ag-10" edge="1">
          <mxGeometry relative="1" as="geometry" />
        </mxCell>
        <mxCell id="0ez0moKY9Dr9emzr6-ag-4" value="wait semaphore" style="rounded=1;whiteSpace=wrap;html=1;shadow=0;labelBackgroundColor=none;strokeWidth=1;fontFamily=Verdana;fontSize=8;align=center;" parent="0ez0moKY9Dr9emzr6-ag-2" vertex="1">
          <mxGeometry x="73.49" y="180" width="100" height="25" as="geometry" />
        </mxCell>
        <mxCell id="0ez0moKY9Dr9emzr6-ag-5" style="edgeStyle=orthogonalEdgeStyle;rounded=0;orthogonalLoop=1;jettySize=auto;html=1;entryX=0.5;entryY=0;entryDx=0;entryDy=0;" parent="0ez0moKY9Dr9emzr6-ag-2" source="0ez0moKY9Dr9emzr6-ag-10" target="0ez0moKY9Dr9emzr6-ag-4" edge="1">
          <mxGeometry relative="1" as="geometry">
            <Array as="points">
              <mxPoint x="193" y="270" />
              <mxPoint x="193" y="160" />
              <mxPoint x="124" y="160" />
            </Array>
          </mxGeometry>
        </mxCell>
        <mxCell id="0ez0moKY9Dr9emzr6-ag-6" value="False" style="edgeLabel;html=1;align=center;verticalAlign=middle;resizable=0;points=[];" parent="0ez0moKY9Dr9emzr6-ag-5" vertex="1" connectable="0">
          <mxGeometry x="-0.4202" relative="1" as="geometry">
            <mxPoint as="offset" />
          </mxGeometry>
        </mxCell>
        <mxCell id="0ez0moKY9Dr9emzr6-ag-7" style="edgeStyle=orthogonalEdgeStyle;rounded=0;orthogonalLoop=1;jettySize=auto;html=1;entryX=0.5;entryY=0;entryDx=0;entryDy=0;" parent="0ez0moKY9Dr9emzr6-ag-2" source="0ez0moKY9Dr9emzr6-ag-10" target="0ez0moKY9Dr9emzr6-ag-15" edge="1">
          <mxGeometry relative="1" as="geometry" />
        </mxCell>
        <mxCell id="0ez0moKY9Dr9emzr6-ag-8" value="True" style="edgeLabel;html=1;align=center;verticalAlign=middle;resizable=0;points=[];" parent="0ez0moKY9Dr9emzr6-ag-7" vertex="1" connectable="0">
          <mxGeometry x="-0.0397" y="-2" relative="1" as="geometry">
            <mxPoint y="-4" as="offset" />
          </mxGeometry>
        </mxCell>
        <mxCell id="0ez0moKY9Dr9emzr6-ag-9" value="" style="edgeStyle=orthogonalEdgeStyle;rounded=0;orthogonalLoop=1;jettySize=auto;html=1;" parent="0ez0moKY9Dr9emzr6-ag-2" source="0ez0moKY9Dr9emzr6-ag-10" target="0ez0moKY9Dr9emzr6-ag-15" edge="1">
          <mxGeometry relative="1" as="geometry" />
        </mxCell>
        <mxCell id="0ez0moKY9Dr9emzr6-ag-10" value="isReqPending" style="rhombus;whiteSpace=wrap;html=1;rounded=0;shadow=0;labelBackgroundColor=none;strokeWidth=1;fontFamily=Verdana;fontSize=8;align=center;" parent="0ez0moKY9Dr9emzr6-ag-2" vertex="1">
          <mxGeometry x="83.49000000000001" y="240" width="80" height="60" as="geometry" />
        </mxCell>
        <mxCell id="0ez0moKY9Dr9emzr6-ag-11" style="edgeStyle=orthogonalEdgeStyle;rounded=0;orthogonalLoop=1;jettySize=auto;html=1;exitX=0;exitY=0.5;exitDx=0;exitDy=0;" parent="0ez0moKY9Dr9emzr6-ag-2" source="0ez0moKY9Dr9emzr6-ag-15" target="0ez0moKY9Dr9emzr6-ag-4" edge="1">
          <mxGeometry relative="1" as="geometry">
            <mxPoint x="71" y="170" as="targetPoint" />
            <Array as="points">
              <mxPoint x="50" y="355" />
              <mxPoint x="50" y="190" />
            </Array>
          </mxGeometry>
        </mxCell>
        <mxCell id="0ez0moKY9Dr9emzr6-ag-12" value="Success" style="edgeLabel;html=1;align=center;verticalAlign=middle;resizable=0;points=[];" parent="0ez0moKY9Dr9emzr6-ag-11" vertex="1" connectable="0">
          <mxGeometry x="-0.0756" y="-1" relative="1" as="geometry">
            <mxPoint as="offset" />
          </mxGeometry>
        </mxCell>
        <mxCell id="0ez0moKY9Dr9emzr6-ag-13" style="edgeStyle=orthogonalEdgeStyle;rounded=0;orthogonalLoop=1;jettySize=auto;html=1;entryX=0.5;entryY=0;entryDx=0;entryDy=0;" parent="0ez0moKY9Dr9emzr6-ag-2" source="0ez0moKY9Dr9emzr6-ag-15" target="0ez0moKY9Dr9emzr6-ag-16" edge="1">
          <mxGeometry relative="1" as="geometry" />
        </mxCell>
        <mxCell id="0ez0moKY9Dr9emzr6-ag-14" value="TimeOut" style="edgeLabel;html=1;align=center;verticalAlign=middle;resizable=0;points=[];" parent="0ez0moKY9Dr9emzr6-ag-13" vertex="1" connectable="0">
          <mxGeometry x="-0.4405" y="2" relative="1" as="geometry">
            <mxPoint x="-2" y="9" as="offset" />
          </mxGeometry>
        </mxCell>
        <mxCell id="0ez0moKY9Dr9emzr6-ag-15" value="wait completionWaitSignal" style="rounded=1;whiteSpace=wrap;html=1;shadow=0;labelBackgroundColor=none;strokeWidth=1;fontFamily=Verdana;fontSize=8;align=center;" parent="0ez0moKY9Dr9emzr6-ag-2" vertex="1">
          <mxGeometry x="58.49" y="340" width="130" height="30" as="geometry" />
        </mxCell>
        <mxCell id="0ez0moKY9Dr9emzr6-ag-16" value="TimeOutHandler" style="rounded=1;whiteSpace=wrap;html=1;shadow=0;labelBackgroundColor=none;strokeWidth=1;fontFamily=Verdana;fontSize=8;align=center;" parent="0ez0moKY9Dr9emzr6-ag-2" vertex="1">
          <mxGeometry x="73.49" y="432" width="100" height="20" as="geometry" />
        </mxCell>
        <mxCell id="0ez0moKY9Dr9emzr6-ag-17" style="edgeStyle=orthogonalEdgeStyle;rounded=0;orthogonalLoop=1;jettySize=auto;html=1;entryX=0.005;entryY=0.417;entryDx=0;entryDy=0;entryPerimeter=0;" parent="0ez0moKY9Dr9emzr6-ag-2" source="0ez0moKY9Dr9emzr6-ag-16" target="0ez0moKY9Dr9emzr6-ag-4" edge="1">
          <mxGeometry relative="1" as="geometry">
            <Array as="points">
              <mxPoint x="124" y="490" />
              <mxPoint x="20" y="490" />
              <mxPoint x="20" y="190" />
              <mxPoint x="74" y="190" />
            </Array>
          </mxGeometry>
        </mxCell>
        <mxCell id="0ez0moKY9Dr9emzr6-ag-18" value="Infinite Loop For TimeOut Check" style="text;html=1;align=center;verticalAlign=middle;whiteSpace=wrap;rounded=0;" parent="0ez0moKY9Dr9emzr6-ag-2" vertex="1">
          <mxGeometry x="10" y="90" width="96.51" height="30" as="geometry" />
        </mxCell>
        <mxCell id="0ez0moKY9Dr9emzr6-ag-71" value="5" style="ellipse;whiteSpace=wrap;html=1;aspect=fixed;fillColor=#e51400;fontColor=#ffffff;strokeColor=#B20000;" parent="0ez0moKY9Dr9emzr6-ag-2" vertex="1">
          <mxGeometry x="83.49000000000001" y="140" width="20" height="20" as="geometry" />
        </mxCell>
        <mxCell id="0ez0moKY9Dr9emzr6-ag-21" value="InterruptHandler" style="swimlane;html=1;startSize=20;" parent="0ez0moKY9Dr9emzr6-ag-1" vertex="1">
          <mxGeometry x="220" y="20" width="190" height="590" as="geometry" />
        </mxCell>
        <mxCell id="0ez0moKY9Dr9emzr6-ag-22" style="edgeStyle=orthogonalEdgeStyle;rounded=0;orthogonalLoop=1;jettySize=auto;html=1;" parent="0ez0moKY9Dr9emzr6-ag-21" source="0ez0moKY9Dr9emzr6-ag-23" target="0ez0moKY9Dr9emzr6-ag-27" edge="1">
          <mxGeometry relative="1" as="geometry" />
        </mxCell>
        <mxCell id="0ez0moKY9Dr9emzr6-ag-23" value="SetEvent" style="rounded=1;whiteSpace=wrap;html=1;shadow=0;labelBackgroundColor=none;strokeWidth=1;fontFamily=Verdana;fontSize=8;align=center;" parent="0ez0moKY9Dr9emzr6-ag-21" vertex="1">
          <mxGeometry x="42.5" y="418" width="80" height="20" as="geometry" />
        </mxCell>
        <mxCell id="0ez0moKY9Dr9emzr6-ag-24" style="edgeStyle=orthogonalEdgeStyle;rounded=0;orthogonalLoop=1;jettySize=auto;html=1;" parent="0ez0moKY9Dr9emzr6-ag-21" source="0ez0moKY9Dr9emzr6-ag-26" target="0ez0moKY9Dr9emzr6-ag-31" edge="1">
          <mxGeometry relative="1" as="geometry" />
        </mxCell>
        <mxCell id="0ez0moKY9Dr9emzr6-ag-25" value="True" style="edgeLabel;html=1;align=center;verticalAlign=middle;resizable=0;points=[];" parent="0ez0moKY9Dr9emzr6-ag-24" vertex="1" connectable="0">
          <mxGeometry x="-0.1278" y="1" relative="1" as="geometry">
            <mxPoint as="offset" />
          </mxGeometry>
        </mxCell>
        <mxCell id="0ez0moKY9Dr9emzr6-ag-26" value="isReqPending" style="rhombus;whiteSpace=wrap;html=1;rounded=0;shadow=0;labelBackgroundColor=none;strokeWidth=1;fontFamily=Verdana;fontSize=8;align=center;" parent="0ez0moKY9Dr9emzr6-ag-21" vertex="1">
          <mxGeometry x="42.5" y="138" width="80" height="40" as="geometry" />
        </mxCell>
        <mxCell id="0ez0moKY9Dr9emzr6-ag-27" value="End" style="strokeWidth=2;html=1;shape=mxgraph.flowchart.terminator;whiteSpace=wrap;" parent="0ez0moKY9Dr9emzr6-ag-21" vertex="1">
          <mxGeometry x="55" y="528" width="55" height="30" as="geometry" />
        </mxCell>
        <mxCell id="0ez0moKY9Dr9emzr6-ag-28" style="edgeStyle=orthogonalEdgeStyle;rounded=0;orthogonalLoop=1;jettySize=auto;html=1;entryX=0.5;entryY=0;entryDx=0;entryDy=0;entryPerimeter=0;" parent="0ez0moKY9Dr9emzr6-ag-21" source="0ez0moKY9Dr9emzr6-ag-26" target="0ez0moKY9Dr9emzr6-ag-27" edge="1">
          <mxGeometry relative="1" as="geometry">
            <Array as="points">
              <mxPoint x="158" y="148" />
              <mxPoint x="158" y="488" />
              <mxPoint x="82" y="488" />
            </Array>
          </mxGeometry>
        </mxCell>
        <mxCell id="0ez0moKY9Dr9emzr6-ag-29" value="False" style="edgeLabel;html=1;align=center;verticalAlign=middle;resizable=0;points=[];" parent="0ez0moKY9Dr9emzr6-ag-28" vertex="1" connectable="0">
          <mxGeometry x="-0.5945" y="-3" relative="1" as="geometry">
            <mxPoint x="3" y="-26" as="offset" />
          </mxGeometry>
        </mxCell>
        <mxCell id="0ez0moKY9Dr9emzr6-ag-30" style="edgeStyle=orthogonalEdgeStyle;rounded=0;orthogonalLoop=1;jettySize=auto;html=1;" parent="0ez0moKY9Dr9emzr6-ag-21" source="0ez0moKY9Dr9emzr6-ag-31" target="0ez0moKY9Dr9emzr6-ag-37" edge="1">
          <mxGeometry relative="1" as="geometry" />
        </mxCell>
        <mxCell id="0ez0moKY9Dr9emzr6-ag-31" value="read status register" style="rounded=1;whiteSpace=wrap;html=1;shadow=0;labelBackgroundColor=none;strokeWidth=1;fontFamily=Verdana;fontSize=8;align=center;" parent="0ez0moKY9Dr9emzr6-ag-21" vertex="1">
          <mxGeometry x="32.5" y="218" width="100" height="25" as="geometry" />
        </mxCell>
        <mxCell id="0ez0moKY9Dr9emzr6-ag-32" style="edgeStyle=orthogonalEdgeStyle;rounded=0;orthogonalLoop=1;jettySize=auto;html=1;" parent="0ez0moKY9Dr9emzr6-ag-21" source="0ez0moKY9Dr9emzr6-ag-33" target="0ez0moKY9Dr9emzr6-ag-23" edge="1">
          <mxGeometry relative="1" as="geometry" />
        </mxCell>
        <mxCell id="0ez0moKY9Dr9emzr6-ag-33" value="complete transaction whether success or error" style="rounded=1;whiteSpace=wrap;html=1;shadow=0;labelBackgroundColor=none;strokeWidth=1;fontFamily=Verdana;fontSize=8;align=center;" parent="0ez0moKY9Dr9emzr6-ag-21" vertex="1">
          <mxGeometry x="32.5" y="338" width="100" height="40" as="geometry" />
        </mxCell>
        <mxCell id="0ez0moKY9Dr9emzr6-ag-34" style="edgeStyle=orthogonalEdgeStyle;rounded=0;orthogonalLoop=1;jettySize=auto;html=1;entryX=0.5;entryY=0;entryDx=0;entryDy=0;" parent="0ez0moKY9Dr9emzr6-ag-21" source="0ez0moKY9Dr9emzr6-ag-35" target="0ez0moKY9Dr9emzr6-ag-44" edge="1">
          <mxGeometry relative="1" as="geometry" />
        </mxCell>
        <mxCell id="0ez0moKY9Dr9emzr6-ag-35" value="Start" style="strokeWidth=2;html=1;shape=mxgraph.flowchart.terminator;whiteSpace=wrap;" parent="0ez0moKY9Dr9emzr6-ag-21" vertex="1">
          <mxGeometry x="55" y="39" width="55" height="30" as="geometry" />
        </mxCell>
        <mxCell id="0ez0moKY9Dr9emzr6-ag-36" style="edgeStyle=orthogonalEdgeStyle;rounded=0;orthogonalLoop=1;jettySize=auto;html=1;" parent="0ez0moKY9Dr9emzr6-ag-21" source="0ez0moKY9Dr9emzr6-ag-37" target="0ez0moKY9Dr9emzr6-ag-33" edge="1">
          <mxGeometry relative="1" as="geometry" />
        </mxCell>
        <mxCell id="0ez0moKY9Dr9emzr6-ag-37" value="ReqPending = False" style="rounded=1;whiteSpace=wrap;html=1;shadow=0;labelBackgroundColor=none;strokeWidth=1;fontFamily=Verdana;fontSize=8;align=center;" parent="0ez0moKY9Dr9emzr6-ag-21" vertex="1">
          <mxGeometry x="32.5" y="278" width="100" height="25" as="geometry" />
        </mxCell>
        <mxCell id="0ez0moKY9Dr9emzr6-ag-43" style="edgeStyle=orthogonalEdgeStyle;rounded=0;orthogonalLoop=1;jettySize=auto;html=1;entryX=0.5;entryY=0;entryDx=0;entryDy=0;" parent="0ez0moKY9Dr9emzr6-ag-21" source="0ez0moKY9Dr9emzr6-ag-44" target="0ez0moKY9Dr9emzr6-ag-26" edge="1">
          <mxGeometry relative="1" as="geometry" />
        </mxCell>
        <mxCell id="0ez0moKY9Dr9emzr6-ag-44" value="... ..." style="rounded=1;whiteSpace=wrap;html=1;shadow=0;labelBackgroundColor=none;strokeWidth=1;fontFamily=Verdana;fontSize=8;align=center;" parent="0ez0moKY9Dr9emzr6-ag-21" vertex="1">
          <mxGeometry x="32.5" y="90" width="100" height="25" as="geometry" />
        </mxCell>
        <mxCell id="0ez0moKY9Dr9emzr6-ag-45" value="EvtIoRead" style="swimlane;html=1;startSize=20;" parent="0ez0moKY9Dr9emzr6-ag-1" vertex="1">
          <mxGeometry x="410" y="20" width="180" height="590" as="geometry" />
        </mxCell>
        <mxCell id="0ez0moKY9Dr9emzr6-ag-46" value="" style="rounded=0;whiteSpace=wrap;html=1;fillColor=#fff2cc;strokeColor=#d6b656;" parent="0ez0moKY9Dr9emzr6-ag-45" vertex="1">
          <mxGeometry x="25" y="142.5" width="130" height="237.5" as="geometry" />
        </mxCell>
        <mxCell id="0ez0moKY9Dr9emzr6-ag-47" style="edgeStyle=orthogonalEdgeStyle;rounded=0;orthogonalLoop=1;jettySize=auto;html=1;" parent="0ez0moKY9Dr9emzr6-ag-45" source="0ez0moKY9Dr9emzr6-ag-48" target="0ez0moKY9Dr9emzr6-ag-55" edge="1">
          <mxGeometry relative="1" as="geometry">
            <mxPoint x="90" y="210" as="targetPoint" />
          </mxGeometry>
        </mxCell>
        <mxCell id="0ez0moKY9Dr9emzr6-ag-48" value="SetDescriptors" style="rounded=1;whiteSpace=wrap;html=1;shadow=0;labelBackgroundColor=none;strokeWidth=1;fontFamily=Verdana;fontSize=8;align=center;" parent="0ez0moKY9Dr9emzr6-ag-45" vertex="1">
          <mxGeometry x="40" y="160" width="100" height="25" as="geometry" />
        </mxCell>
        <mxCell id="0ez0moKY9Dr9emzr6-ag-49" style="edgeStyle=orthogonalEdgeStyle;rounded=0;orthogonalLoop=1;jettySize=auto;html=1;entryX=0.5;entryY=0;entryDx=0;entryDy=0;" parent="0ez0moKY9Dr9emzr6-ag-45" source="0ez0moKY9Dr9emzr6-ag-50" target="0ez0moKY9Dr9emzr6-ag-48" edge="1">
          <mxGeometry relative="1" as="geometry" />
        </mxCell>
        <mxCell id="0ez0moKY9Dr9emzr6-ag-50" value="... ..." style="rounded=1;whiteSpace=wrap;html=1;shadow=0;labelBackgroundColor=none;strokeWidth=1;fontFamily=Verdana;fontSize=8;align=center;" parent="0ez0moKY9Dr9emzr6-ag-45" vertex="1">
          <mxGeometry x="40" y="100" width="100" height="25" as="geometry" />
        </mxCell>
        <mxCell id="0ez0moKY9Dr9emzr6-ag-51" style="edgeStyle=orthogonalEdgeStyle;rounded=0;orthogonalLoop=1;jettySize=auto;html=1;entryX=0.5;entryY=0;entryDx=0;entryDy=0;" parent="0ez0moKY9Dr9emzr6-ag-45" source="0ez0moKY9Dr9emzr6-ag-52" target="0ez0moKY9Dr9emzr6-ag-50" edge="1">
          <mxGeometry relative="1" as="geometry" />
        </mxCell>
        <mxCell id="0ez0moKY9Dr9emzr6-ag-52" value="ReadFile" style="strokeWidth=2;html=1;shape=mxgraph.flowchart.terminator;whiteSpace=wrap;" parent="0ez0moKY9Dr9emzr6-ag-45" vertex="1">
          <mxGeometry x="55" y="40" width="70" height="30" as="geometry" />
        </mxCell>
        <mxCell id="0ez0moKY9Dr9emzr6-ag-53" value="... ...&amp;nbsp;&lt;div&gt;wait until&amp;nbsp;&amp;nbsp;WdfRequestComplete is called&lt;/div&gt;" style="rounded=1;whiteSpace=wrap;html=1;shadow=0;labelBackgroundColor=none;strokeWidth=1;fontFamily=Verdana;fontSize=8;align=center;" parent="0ez0moKY9Dr9emzr6-ag-45" vertex="1">
          <mxGeometry x="15" y="410" width="150" height="40" as="geometry" />
        </mxCell>
        <mxCell id="0ez0moKY9Dr9emzr6-ag-54" style="edgeStyle=orthogonalEdgeStyle;rounded=0;orthogonalLoop=1;jettySize=auto;html=1;" parent="0ez0moKY9Dr9emzr6-ag-45" source="0ez0moKY9Dr9emzr6-ag-55" target="0ez0moKY9Dr9emzr6-ag-57" edge="1">
          <mxGeometry relative="1" as="geometry" />
        </mxCell>
        <mxCell id="0ez0moKY9Dr9emzr6-ag-55" value="ReqPending = true" style="rounded=1;whiteSpace=wrap;html=1;shadow=0;labelBackgroundColor=none;strokeWidth=1;fontFamily=Verdana;fontSize=8;align=center;" parent="0ez0moKY9Dr9emzr6-ag-45" vertex="1">
          <mxGeometry x="40" y="220" width="100" height="25" as="geometry" />
        </mxCell>
        <mxCell id="0ez0moKY9Dr9emzr6-ag-56" style="edgeStyle=orthogonalEdgeStyle;rounded=0;orthogonalLoop=1;jettySize=auto;html=1;" parent="0ez0moKY9Dr9emzr6-ag-45" source="0ez0moKY9Dr9emzr6-ag-57" target="0ez0moKY9Dr9emzr6-ag-59" edge="1">
          <mxGeometry relative="1" as="geometry" />
        </mxCell>
        <mxCell id="0ez0moKY9Dr9emzr6-ag-57" value="StartEngine By Set Control Register" style="rounded=1;whiteSpace=wrap;html=1;shadow=0;labelBackgroundColor=none;strokeWidth=1;fontFamily=Verdana;fontSize=8;align=center;" parent="0ez0moKY9Dr9emzr6-ag-45" vertex="1">
          <mxGeometry x="40" y="280" width="100" height="30" as="geometry" />
        </mxCell>
        <mxCell id="0ez0moKY9Dr9emzr6-ag-58" style="edgeStyle=orthogonalEdgeStyle;rounded=0;orthogonalLoop=1;jettySize=auto;html=1;" parent="0ez0moKY9Dr9emzr6-ag-45" source="0ez0moKY9Dr9emzr6-ag-59" target="0ez0moKY9Dr9emzr6-ag-53" edge="1">
          <mxGeometry relative="1" as="geometry" />
        </mxCell>
        <mxCell id="0ez0moKY9Dr9emzr6-ag-59" value="ReleaseSemaphore" style="rounded=1;whiteSpace=wrap;html=1;shadow=0;labelBackgroundColor=none;strokeWidth=1;fontFamily=Verdana;fontSize=8;align=center;" parent="0ez0moKY9Dr9emzr6-ag-45" vertex="1">
          <mxGeometry x="40" y="340" width="100" height="25" as="geometry" />
        </mxCell>
        <mxCell id="0ez0moKY9Dr9emzr6-ag-60" value="End" style="strokeWidth=2;html=1;shape=mxgraph.flowchart.terminator;whiteSpace=wrap;" parent="0ez0moKY9Dr9emzr6-ag-45" vertex="1">
          <mxGeometry x="62.5" y="525" width="55" height="30" as="geometry" />
        </mxCell>
        <mxCell id="0ez0moKY9Dr9emzr6-ag-61" style="edgeStyle=orthogonalEdgeStyle;rounded=0;orthogonalLoop=1;jettySize=auto;html=1;entryX=0.5;entryY=0;entryDx=0;entryDy=0;entryPerimeter=0;" parent="0ez0moKY9Dr9emzr6-ag-45" source="0ez0moKY9Dr9emzr6-ag-53" target="0ez0moKY9Dr9emzr6-ag-60" edge="1">
          <mxGeometry relative="1" as="geometry" />
        </mxCell>
        <mxCell id="0ez0moKY9Dr9emzr6-ag-62" value="Driver Code" style="text;html=1;align=center;verticalAlign=middle;whiteSpace=wrap;rounded=0;" parent="0ez0moKY9Dr9emzr6-ag-45" vertex="1">
          <mxGeometry x="105" y="130" width="75" height="30" as="geometry" />
        </mxCell>
        <mxCell id="0ez0moKY9Dr9emzr6-ag-63" value="2" style="ellipse;whiteSpace=wrap;html=1;aspect=fixed;fillColor=#e51400;fontColor=#ffffff;strokeColor=#B20000;" parent="0ez0moKY9Dr9emzr6-ag-45" vertex="1">
          <mxGeometry x="20" y="222.5" width="20" height="20" as="geometry" />
        </mxCell>
        <mxCell id="0ez0moKY9Dr9emzr6-ag-64" value="3" style="ellipse;whiteSpace=wrap;html=1;aspect=fixed;fillColor=#e51400;fontColor=#ffffff;strokeColor=#B20000;" parent="0ez0moKY9Dr9emzr6-ag-45" vertex="1">
          <mxGeometry x="20" y="285" width="20" height="20" as="geometry" />
        </mxCell>
        <mxCell id="0ez0moKY9Dr9emzr6-ag-65" value="1" style="ellipse;whiteSpace=wrap;html=1;aspect=fixed;fillColor=#e51400;fontColor=#ffffff;strokeColor=#B20000;" parent="0ez0moKY9Dr9emzr6-ag-45" vertex="1">
          <mxGeometry x="20" y="162.5" width="20" height="20" as="geometry" />
        </mxCell>
        <mxCell id="0ez0moKY9Dr9emzr6-ag-66" value="4" style="ellipse;whiteSpace=wrap;html=1;aspect=fixed;fillColor=#e51400;fontColor=#ffffff;strokeColor=#B20000;" parent="0ez0moKY9Dr9emzr6-ag-45" vertex="1">
          <mxGeometry x="15" y="360" width="20" height="20" as="geometry" />
        </mxCell>
        <mxCell id="0ez0moKY9Dr9emzr6-ag-69" style="edgeStyle=orthogonalEdgeStyle;rounded=1;html=1;labelBackgroundColor=none;startArrow=none;startFill=0;startSize=5;endArrow=classicThin;endFill=1;endSize=5;jettySize=auto;orthogonalLoop=1;strokeWidth=1;fontFamily=Verdana;fontSize=8;exitX=0;exitY=0.5;exitDx=0;exitDy=0;" parent="0ez0moKY9Dr9emzr6-ag-1" source="0ez0moKY9Dr9emzr6-ag-59" target="0ez0moKY9Dr9emzr6-ag-4" edge="1">
          <mxGeometry relative="1" as="geometry">
            <Array as="points">
              <mxPoint x="420" y="373" />
              <mxPoint x="420" y="50" />
              <mxPoint x="124" y="50" />
            </Array>
            <mxPoint x="173.49" y="165" as="sourcePoint" />
            <mxPoint x="98.49000000000001" y="120" as="targetPoint" />
          </mxGeometry>
        </mxCell>
        <mxCell id="0ez0moKY9Dr9emzr6-ag-70" value="Signal" style="edgeLabel;html=1;align=center;verticalAlign=middle;resizable=0;points=[];" parent="0ez0moKY9Dr9emzr6-ag-69" vertex="1" connectable="0">
          <mxGeometry x="-0.0293" relative="1" as="geometry">
            <mxPoint x="35" y="310" as="offset" />
          </mxGeometry>
        </mxCell>
        <mxCell id="0ez0moKY9Dr9emzr6-ag-76" value="" style="shape=stencil(lZbdUttADIWfxrdnpNX+XlN4D2YIjYc0YUKg5e3R1mOIlkSd3vnv88pHR8c7yc3L9v55MwV6OR0PT5vf88NpO8mPKYR5v90c55MeTXI7yc3j4bj5eTy87h+W8+f7/mQ/+nV462/4s3CNUEKnAr0vV2JCan+v3C3Abt6fAxmlGCAJWnWAhsoGyIKaXSCJAUoEeyUltGyAqis4QG2IFmiMFh1AVbIltYLE14FCyFYlJgLRdSITJNolGtiRKRGq7ZzqQE4jooBtI2oFO4BUkAVK84EMsrrmBhIHKGMjUkV1VIphXCGqW5zO6W1pFggITklaQK4G0CKzs0KuaMkCGSE53lARrZlU6OB8dG+TXUFbGfyBoGFG6V8zykPjCLFcB87c/OkNWoPh8hI6MBbQofJa3UdysGtbX3FZJh36YUg1GJySeqzYkr6i53KrBeXbjFYnBjQa6wBofHozmhCHoVZZHTN1QP4HkDima09Dx0whrm7+BBKyE0yc1rQ+i43ofHRBtW4tDHHaEMYwzrym7cXn1ar2AxKvKXLteWuLSODg1ZNsYgRfUc0TWz831xQcR4GYkZweBxmBBHEmRz0x/Bm0AY6garpBofHfpgdfO47HebdbNizn98cdil5adjdy+wE=);lineShape=1;strokeColor=#FF3333;" parent="1" vertex="1">
          <mxGeometry x="163.52981145450372" y="273.5221170626022" width="2.51462274023811" height="2.522336761604606" as="geometry" />
        </mxCell>
        <mxCell id="0ez0moKY9Dr9emzr6-ag-77" value="" style="shape=stencil(nZzZ0hy3DYWfRrdd3Jdrx3kPV1mOVVEklyxnefuAUXXP9MH8H63cyb+JaS4gcHAA4l3+4fdff/rt/bsUfv/65fPf3//rw89ff32X//IupQ+ffn3/5cNX+9e7/OO7/MMvn7+8/9uXz398+vnbf//20xq5/vWPz/9cv/Dvb3JzHj0tqRT+8+0vMRyj/u8vf/0m8PHDJxGId4F0hIkCbd4F8tELC/S7QD1GZIF2FxhH4DW0ehNI4YjpuwRs0YEFyl0gn6v6swL1yJtFi0D/3imNc1V/UiCHIw0WyHeBuNMlFchHat8lUI62WbQI1GNuTvquS7kfkb/Qw11gHJHX0OULc6etI6nA4CmNcRMo4Sh8Red9l0o8Ik9pNhUYrN7zbgRKwvsQQzi1+ZLIR+ULoZ8o21XLNtWj8MnNu2Eq7ShsyebdbJR+FN4mOeoyjvpdl7rMo/Iayn1KNRyVp5TuR13jbkrpfnA1HZmnFO8HV/PuyqWoAp0NU7rrdy07XUqyS/Wc5JsCXQU2pi/JottuSrpL/dyGtwRCUYFBaxjHkJM25aM1DHXU9Tr7NwXuqtHCkTMKlPuUWjwCnfTQbTWBTuo9TlW7BBLf6a6AqWW+cf3I93No5rPIBXW1fK2yV2zn7z0JTFKNpvehNT7pqnapmfLRLtXzXC+Bwept9+t+p9tkN1rU73ZzcrStRXepb3SpqKk0gcFTElPZE590PrHIJZCPTNpqqnbXpV6OwAKxqgCC76RXtFf2ouk8pkugMXYw9zFVAE1l0Iij9xN+vBQY89T+S2Cg5TOBLIu+gpbXAuOYd4ERTkf8lkC4T2lEntJ1vy6BdJ79a4GqkGzkc6PfEhAfN8rpxF4LFPUP6yfgTptAuAOs0VBbbcYxqwAh3bUnsq2ddyme+OsSGKd5fi1g6CipwASrYQLiUEy7yAiYqsX7F0zhyVSaMouZMYEJ22rXJd9vnN1BMpV25fv9HCZDODMq5b7oh+F5LZDPkOdJgGyrmV456WXPSSCcM74EzMXALjWHW02gwy6ZCxQzs/wqLLpddu5JgFTD3LhAuIUN6AvZTamjei90NFRg0hdcWGYIilxW9btkxhgwnwFn4YseIchrgezWYDEQXFGLRwRrTA6oa9Aoa04EWBaERTclclkWF4ptfYSzrwWaWu+niPm1RFFo/AiAXwsktcZrm2BO2RF3k91o7u7KzdOQvBYox3QHEeAG5XTO+En7COnmoFTIZLCRxguBCNuamgLXZTZgl5IZV1FXhmQpqW48wPJrgeDMN8PK6ELFhUzhC7ErcDWPQoRRbG5KCfnQWJ16R1S+WJRF2LjRmJT+MYFIU4rKGhsUIGIjBnXUg62xMzODofRQrG4IboCuutDVIB16Bw2xButRVX5sIUA4s6o3wQBgAl9S1OEa/iMG2wVwI7A90gM2MFfJHKk/7xwVJxfudbxmSTkiC62Im4guUKoIqqKS472gvsWTSnmKbyecVzyijE+ob8HFzxEzRT6SvP7yxvgibNI8Os4n3y1EG3i/gsadNj4CXAvqLw1S0n4G9eCGKMmDh/O2PlFV/PtBfj+jVXfgsaWj83zc+MjzueuD4duM5yX3sQW8v25/6sQshh8/TgDz5+Zj6JnYGqc/tW30U+5vvYi9t+6LjC+IrMN5mtf4jPYhnLD7aTzFaOG83df4hPbTj4/oL8IZmVzjA5LBNt5lX1gfxB+VgXGEm4/FCQTkgsJjCxMynFdU6qFUTAnHE4Jd4wtDptNbPY3PBICUfCwZ7aEfHxGs+/EB75eNjzqewg0H+CwkIhok6vmu3DHoZ1L7sJLTOF4CgdyQsUtKzeaKeCm5+VusAuMd/sn5tDBvjE+uPoBqTbLGADliFJ3P1V3jA97HrPh8VURQNHmir3O8IXaiJ7PSyqtEg2iDI9/vryF2sj9F9XkFo4iHxb6liverKqtnfyF7W5Xkti8Svq2KJ23HyN9VZYZMYyf8flP8sBA10Weqnwvxwn42ZZ8XwuR4SmqtJvq7pvGUBeqFqOQTHV3judiln9zJNd5WBOfblX2xKJ3uu2n7/bwsSG+UHz53+xqfOeYP6sBiQjLSQnjJ60cu/IrORMfILuziQR5E3pHIx7igc3LMVvQDA8lOz7x0tBHRZRc6z39oRoVJ8KXyEoQdgQi5oDUDFW3uAjUCus8jfItdE6UumApfJk2cMK7XPi9GN/N8uqpoQro8uXzThXLeYkTFqUakK81Fl7tRDJjIXxBgynjKcRjEkCCYee/s8v5X1Pp6fNWgk2tDc1WbwlWSNr7q7yNmqmd91mM8xQCvfp8qHtf87+Mjr7donV3EtHF2oCNiwsjGR/39zPomTj5iymvpp+o/2avsSigi62fS/bmixDfH6/mSfXhA4Cf9IX3IWooTMAaw8UISBCyTsfMKbjz9flGnvR0/3Hi+L0nvO55v1TKfgJhp3S9dL55XVRKXC+zXfVR9Jn9n46PeX8Lc3z3eBfHMuSTnrzOel8ER0R/G9I+Q5eF/ieMzfxqdf6f5O3uywQ9JgxjmXJZ5ElKTE4xBg1RD4QRZXe0qcworREgynkqZYtNCo8mcUXUPRphkXYBVDDR7GEPE04F0CstNQFy8/YUwiv2e+gAmNm3GYnRtVZRpiEG9vO0blW9NTX3YuXCoJCU9C7dTre6pZE+hJF2bqamGpYdwykOp2Y1ZH466YJgy9NbbPaVS465eJmW8Nv0kwp/GE3XUNTW0yBgq2tJU7SP5+VboL1REw/m7KoSNGWrqJW2GTKXo/nMqrLr9nwhzq5ZhW5xCZteh6BzxKUbVKNJwGt2vqlHkesqEvy81SDaeUp0uis9c/+ainsxFI0UNVm54X8qZqHmioikMLkoN5oFvBbKi6A2VXjQVuaHqi/I0m1SAm3+JeB+LUoklceGReyqUMTWaXSqJqVOH6kvF/cyK0gs/wsxKRZe2mY9E8ZvUVtZSl03qLGsUuUnNuflsUn9Zo4xNatGPZxidX7xxorKyV+MpFe/H86sUt5+1IuzOWvtdG6ZukntL1Bmmqz/dpMqTY/k4Fe/Hs/64+WxKCZKypptShaSlT5tSiFfjyZ4kjTo3pRxufzalIsk9zOJSlPTiiRLRWEn90SqlQf3x4ykT4OczMUxKyoL2gDRr0tRHj1yzqVFYT0jTZ/fEJW/sudTbd64hze45Vt3YN8GrncPmovvfO+Kr4kq9BsYjjsXt/JaxvngBRPatqT8dEe1bV3xi4/GRh7I0gwtsh+LPwV0Zxvl/r/EF9Xkqfh6VK4SDoyEa5kZXda3s6IYYcVdmDKxmig4TD07fP0L2ixoJyF3HplzijFx47euoN1XO7sntTJieiK6fwarUZj5L3y9lTGgkX0dd2JVV94WCsee6DK5iHo3pVO2eXDhrwaM+deiYdcsOT5sA2l9HA8/BX3AWYD114OcaElJOzgwX5wPnwHNYT07cGggkFFdQMRnll6400m5KU3HpRqA6uzQ3REZ075cGFllWB8UnM7CG1KdbQ6YvdA1Gl/KRwHBXlL2tgV29Dw0rPVp0yselJM0BErvTpEuGR6U4bVY0la0pZJsVKY3WtZJhvbOhXRpONQoWhxhmFJZxZkzePerfn6w3tfdYDzFlDRFxsMFA7+MokFrvx92zGXKKCwgKEpgI/RcSdH6aYikT6O4VMD317EN1aTBb0a93Ak8ClGEYwT1taXhwBgfFPyyARQR6UoQ7CiPE5J4vFaxEGa48cmTkREbR9xUjoWrYEvWBOGvrcDT0COh2TUAMWee3oXauGjgMzF+aqmlLho4OxZRZslW9IVU8XFnculKbhgkiULlLRHAPe7hoavqXOoWbArksqVkquqImILXvFhBjNyf3CnhF3PQFl+hdDUQohZY0fuhcimACYjUa46XpoLQJkJ+ejoZcTozSjNlV6zXu9OWeoLdNPxD3LrlVZM6mewTcNrpUHTeXOfdZtSStcUJ5QRFhzyL3pWtqBAxB4UvPplV+LfAaHJqpkxO4TesOF6NKytddYcWmhZXLae6aZPUXpDO24eqOZd80+uqu0VfmflHd9e3K3IGnax+Kyg+ZZ1e8VLkAbnZHnXNF4QL/kjuaLDBcL77BTbIcu7RrfDe0qG3XWm9oHLdr3jf0Ld6uPeBwGb9NA0L/Be5x+GLRmy6KQ+HPrk/jUJZ71wlyuBc3m16TruHarpvl0DcHu36Zwz262XTkdAVNu56fXmDTVdQLbPqWeoFNZ1QvsOm96gR23V2HBhy7/rFeYNOh1gtseuB6gU2X3aFPFXZ9fJ0u7ToFD1eMuelFPBRr7Lodu/uw66c8NPO269g81APFgNyM1yUTaKx8ws0sgU0jyKwCm1aTWuQduAvpUJAYN05xqsvaC+jToM2U5ottxUVPJft32+q6we4OzpH9O9X4f9qFbwTsH4/u5L98+PjxW3Pz5/+v3cztT986oecf/ws=);lineShape=1;strokeColor=#FF3333;" parent="1" vertex="1">
          <mxGeometry x="82.33874625005888" y="257.2670353292689" width="82.46416202407863" height="154.23265301843946" as="geometry" />
        </mxCell>
        <mxCell id="0ez0moKY9Dr9emzr6-ag-78" value="" style="shape=stencil(lVfLctswDPwaXTEk+D6n6X9kJk6tqWtnHPf194WqoSxC4npyk2WsSACL5XJwTx/Hl/fDwObjdr18P/weX2/HwX0ZmMfz8XAdb/I0uOfBPb1drodv18vP8+v8+/1lipyeflx+TV/4M+McmTiB2PydXxgy5v+Lr3P4aTyvwi2TKSq+pH48W+LUxDNl3493hpxr4gOZAOILOd/EJ3K5H++z/n6hFPvxIVJq87WWHEg4ekrcApii7QOSJdtWyDoKIOUUqFgNiKUPyI6c2pInA4pUDOXcAiJFBoBE3FZVeFVADqVQDA3ALZ/Y551ZeLkQw5IBjdhDFPKAe7Kp0HIpZmIE8BTa1pVY89oHLI1aALnydx/AFNocpk2C+SzCpjaHVR322SEDEPQSGQEy+ayTKIDhOZFXK8gb0OwsQ6fqGiigFSIFNdXCeTDW0woKIEKFkk516itA6sag1VIl1wqrfCKBGZLvxXZK72XotdpYDYDc4CqNK0ABfZAiBgXIZBDAa7pOWSGlEXX3ug8J5RA0v2WTGa3gtYDLjKJ5EIBp+yBszShppqIAhSzakq0HwgqABkj0mLcAIBvSJiXgAmCwpYmbUSddECBWfV+V1aJDSLipVvDVSvQAukqWCh5Rq+ZBhAyJwGcBk7i2qhETTFoAoV0hPJRv39Lbe+geJtlqO+18HamuercjKo7Joyqxdljsq573/IkSgQeeL5kNAHdaPJayTLzYxp6LUwNkZUKAGPuk2WpT7f2+D81aKsVjFbCC+E5Fb/GJaEuSYlQ+0UAREKOatdUNIJ4pKc0gC3jB1UIuwwMvAhti53pk74ZvHGiCk2mqn7iHI403+hDBR8LGSHoo16aekctIUobh2jtXQ9YJD+pCAt2a1W1aXEMnPLbhUllESnJBhaOLxScvmw/D5eF+r30bT6f5Wrz+X9+D5dV8h3bP/wA=);lineShape=1;strokeColor=#FF3333;" parent="1" vertex="1">
          <mxGeometry x="94.68403555860459" y="255.34971592006002" width="22.255944804868932" height="14.203221968858543" as="geometry" />
        </mxCell>
        <mxCell id="0ez0moKY9Dr9emzr6-ag-79" value="6" style="ellipse;whiteSpace=wrap;html=1;aspect=fixed;fillColor=#e51400;fontColor=#ffffff;strokeColor=#B20000;" parent="1" vertex="1">
          <mxGeometry x="120.00000000000001" y="360" width="20" height="20" as="geometry" />
        </mxCell>
      </root>
    </mxGraphModel>
  </diagram>
</mxfile>
